<svg width="274" height="171" viewBox="0 0 274 171" fill="none" xmlns="http://www.w3.org/2000/svg">
<g filter="url(#filter0_dd)">
<circle cx="265.919" cy="3.52358" r="3.52358" transform="rotate(90 265.919 3.52358)" fill="#70C217"/>
<circle cx="265.919" cy="55.2028" r="3.52358" transform="rotate(90 265.919 55.2028)" fill="#70C217"/>
<circle cx="265.919" cy="106.882" r="3.52358" transform="rotate(90 265.919 106.882)" fill="#70C217"/>
<circle cx="265.919" cy="158.561" r="3.52358" transform="rotate(90 265.919 158.561)" fill="#70C217"/>
<circle cx="214.24" cy="3.52358" r="3.52358" transform="rotate(90 214.24 3.52358)" fill="#70C217"/>
<circle cx="214.24" cy="55.2028" r="3.52358" transform="rotate(90 214.24 55.2028)" fill="#70C217"/>
<circle cx="214.24" cy="106.882" r="3.52358" transform="rotate(90 214.24 106.882)" fill="#70C217"/>
<circle cx="214.24" cy="158.561" r="3.52358" transform="rotate(90 214.24 158.561)" fill="#70C217"/>
<circle cx="162.56" cy="3.52358" r="3.52358" transform="rotate(90 162.56 3.52358)" fill="#70C217"/>
<circle cx="162.56" cy="55.2028" r="3.52358" transform="rotate(90 162.56 55.2028)" fill="#70C217"/>
<circle cx="162.56" cy="106.882" r="3.52358" transform="rotate(90 162.56 106.882)" fill="#70C217"/>
<circle cx="162.56" cy="158.561" r="3.52358" transform="rotate(90 162.56 158.561)" fill="#70C217"/>
<circle cx="110.881" cy="3.52358" r="3.52358" transform="rotate(90 110.881 3.52358)" fill="#70C217"/>
<circle cx="110.881" cy="55.2028" r="3.52358" transform="rotate(90 110.881 55.2028)" fill="#70C217"/>
<circle cx="110.881" cy="106.882" r="3.52358" transform="rotate(90 110.881 106.882)" fill="#70C217"/>
<circle cx="110.881" cy="158.561" r="3.52358" transform="rotate(90 110.881 158.561)" fill="#70C217"/>
<circle cx="59.202" cy="3.52358" r="3.52358" transform="rotate(90 59.202 3.52358)" fill="#70C217"/>
<circle cx="59.202" cy="55.2028" r="3.52358" transform="rotate(90 59.202 55.2028)" fill="#70C217"/>
<circle cx="59.202" cy="106.882" r="3.52358" transform="rotate(90 59.202 106.882)" fill="#70C217"/>
<circle cx="59.202" cy="158.561" r="3.52358" transform="rotate(90 59.202 158.561)" fill="#70C217"/>
<circle cx="7.52281" cy="3.52358" r="3.52358" transform="rotate(90 7.52281 3.52358)" fill="#70C217"/>
<circle cx="7.52281" cy="55.2028" r="3.52358" transform="rotate(90 7.52281 55.2028)" fill="#70C217"/>
<circle cx="7.52281" cy="106.882" r="3.52358" transform="rotate(90 7.52281 106.882)" fill="#70C217"/>
<circle cx="7.52281" cy="158.561" r="3.52358" transform="rotate(90 7.52281 158.561)" fill="#70C217"/>
</g>
<defs>
<filter id="filter0_dd" x="-0.000976562" y="0" width="273.443" height="170.085" filterUnits="userSpaceOnUse" color-interpolation-filters="sRGB">
<feFlood flood-opacity="0" result="BackgroundImageFix"/>
<feColorMatrix in="SourceAlpha" type="matrix" values="0 0 0 0 0 0 0 0 0 0 0 0 0 0 0 0 0 0 127 0"/>
<feOffset dy="4"/>
<feGaussianBlur stdDeviation="2"/>
<feColorMatrix type="matrix" values="0 0 0 0 0 0 0 0 0 0 0 0 0 0 0 0 0 0 0.25 0"/>
<feBlend mode="normal" in2="BackgroundImageFix" result="effect1_dropShadow"/>
<feColorMatrix in="SourceAlpha" type="matrix" values="0 0 0 0 0 0 0 0 0 0 0 0 0 0 0 0 0 0 127 0"/>
<feOffset dy="4"/>
<feGaussianBlur stdDeviation="2"/>
<feColorMatrix type="matrix" values="0 0 0 0 0 0 0 0 0 0 0 0 0 0 0 0 0 0 0.25 0"/>
<feBlend mode="normal" in2="effect1_dropShadow" result="effect2_dropShadow"/>
<feBlend mode="normal" in="SourceGraphic" in2="effect2_dropShadow" result="shape"/>
</filter>
</defs>
</svg>
